<?xml version="1.0" standalone="no"?>
<!DOCTYPE svg PUBLIC "-//W3C//DTD SVG 20010904//EN"
 "http://www.w3.org/TR/2001/REC-SVG-20010904/DTD/svg10.dtd">
<svg version="1.0" xmlns="http://www.w3.org/2000/svg"
 width="500.000000pt" height="500.000000pt" viewBox="0 0 500.000000 500.000000"
 preserveAspectRatio="xMidYMid meet">

<g transform="translate(0.000000,500.000000) scale(0.100000,-0.100000)"
fill="#000000" stroke="none">
<path d="M2745 4550 c-100 -20 -188 -71 -270 -155 -16 -17 -61 -44 -98 -60
-79 -33 -128 -81 -164 -164 -31 -69 -49 -182 -33 -210 9 -18 4 -24 -40 -54
-27 -19 -47 -36 -44 -40 3 -3 -1 -16 -10 -29 -9 -13 -17 -44 -18 -69 -7 -117
35 -502 62 -575 6 -14 10 -36 10 -50 l0 -25 -33 25 c-19 15 -45 26 -58 26 -19
0 -14 -7 31 -36 30 -21 57 -38 59 -40 2 -2 -1 -17 -7 -34 -6 -16 -13 -58 -16
-93 -3 -34 -3 -51 0 -37 3 14 17 70 31 125 14 55 27 129 29 165 6 122 22 235
44 305 12 39 25 102 29 140 5 54 11 75 29 93 12 12 22 33 22 46 0 26 42 65 48
46 6 -16 22 -12 22 5 0 8 6 15 13 15 7 0 20 9 30 20 17 20 37 27 37 12 0 -4
-5 -13 -12 -20 -7 -7 -8 -12 -2 -12 6 0 19 9 29 20 10 11 25 20 33 20 9 0 12
3 9 7 -4 3 26 17 65 30 58 19 87 23 143 19 112 -7 177 -16 196 -27 10 -5 28
-9 41 -9 13 0 33 -7 44 -15 10 -8 31 -15 45 -15 14 0 48 -12 75 -26 27 -15 62
-28 78 -30 16 -2 35 -9 42 -15 7 -5 18 -9 26 -8 33 4 48 -4 67 -37 12 -20 30
-38 41 -41 11 -3 20 -9 20 -14 0 -5 8 -9 18 -10 14 0 14 -2 -3 -9 -11 -5 -18
-9 -15 -10 26 -8 40 -6 41 3 0 7 4 2 9 -10 5 -13 14 -23 19 -23 5 0 13 -9 16
-20 3 -11 13 -20 21 -20 14 0 20 -40 15 -102 -2 -20 2 -28 14 -28 11 0 15 -5
12 -14 -3 -7 0 -19 6 -25 8 -8 8 -11 0 -11 -17 0 -25 -31 -11 -47 9 -11 9 -22
0 -46 -13 -36 -8 -127 9 -160 8 -14 -3 -9 -29 17 -38 36 -43 38 -70 27 -17 -7
-93 -13 -193 -14 -149 -2 -164 -4 -163 -19 1 -10 -2 -18 -7 -18 -5 0 -9 -5 -9
-10 0 -6 -11 -23 -25 -38 -27 -29 -31 -52 -13 -70 7 -7 9 -12 5 -12 -4 0 5
-13 21 -28 23 -23 37 -28 63 -25 19 1 28 0 22 -3 -50 -23 42 -78 148 -88 35
-4 72 -9 81 -12 10 -3 23 -2 30 2 7 4 23 9 36 10 13 2 30 8 39 15 12 10 16 10
24 -2 7 -12 9 -11 9 3 0 16 2 16 29 0 16 -9 28 -18 26 -20 -6 -7 17 -62 26
-62 6 0 5 9 -1 21 -9 16 -8 25 6 40 21 23 34 16 34 -18 0 -20 -4 -24 -17 -19
-16 5 -16 4 -3 -7 25 -21 37 -50 35 -82 -2 -16 2 -45 7 -64 7 -22 7 -35 0 -40
-12 -7 -34 -119 -26 -132 3 -5 1 -9 -4 -9 -6 0 -13 -12 -17 -27 -3 -15 -11
-31 -17 -34 -6 -4 -11 -33 -12 -65 -1 -33 -8 -70 -15 -83 -7 -12 -11 -32 -8
-42 3 -10 1 -19 -4 -19 -5 0 -9 -15 -9 -34 0 -19 -5 -38 -10 -41 -7 -4 -9 2
-4 19 10 40 -9 30 -31 -17 -13 -27 -31 -47 -53 -57 -25 -12 -31 -20 -27 -37 4
-17 1 -20 -15 -16 -23 6 -25 14 -8 31 7 7 8 12 2 12 -14 0 -36 -39 -28 -52 4
-7 3 -8 -4 -4 -6 4 -17 -2 -24 -14 -7 -11 -17 -20 -22 -20 -5 0 -15 -8 -23
-17 -13 -17 -14 -16 -10 5 3 14 0 22 -8 22 -31 0 -45 -13 -45 -42 0 -18 -4
-27 -11 -23 -5 4 -19 -1 -30 -10 -18 -17 -18 -19 -1 -31 16 -12 15 -13 -5 -14
-25 0 -41 -38 -27 -62 6 -10 5 -10 -7 -1 -16 13 -70 12 -61 -1 3 -5 -2 -7 -11
-3 -13 5 -17 1 -17 -18 0 -14 -4 -25 -10 -25 -5 0 -10 8 -10 18 0 13 -2 14 -9
3 -5 -7 -14 -10 -20 -7 -6 4 -11 2 -11 -3 0 -6 -8 -11 -18 -11 -11 0 -24 -11
-30 -24 -12 -28 -84 -49 -114 -34 -27 13 -50 9 -55 -11 -4 -17 -8 -17 -43 -5
-21 7 -48 11 -61 9 -14 -3 -31 3 -45 16 -12 12 -32 19 -45 17 -17 -2 -25 4
-33 27 -10 27 -46 46 -46 24 0 -5 -4 -9 -10 -9 -18 0 -11 30 8 31 11 1 8 4 -8
8 -15 4 -25 14 -25 26 -1 12 -7 19 -15 17 -21 -5 -30 20 -12 34 15 11 14 12
-8 7 -14 -3 -28 -11 -32 -17 -5 -8 -8 -7 -8 2 0 6 -11 12 -25 12 -15 0 -25 6
-25 14 0 8 -7 16 -15 20 -8 3 -15 12 -15 20 0 7 -7 16 -15 20 -8 3 -12 11 -10
18 3 7 -6 25 -20 40 -14 15 -25 29 -25 32 0 3 -11 29 -24 58 -14 29 -30 78
-36 108 -6 30 -17 84 -24 119 -8 34 -18 108 -22 162 -3 55 -10 101 -13 104
-19 11 14 -263 50 -408 30 -125 73 -218 133 -286 18 -20 49 -59 69 -88 74
-101 153 -161 282 -211 65 -25 246 -34 326 -17 20 5 29 4 25 -3 -3 -6 -30 -13
-59 -17 -89 -13 -100 -25 -17 -22 58 2 69 1 48 -7 -16 -5 -28 -13 -28 -18 0
-4 -11 -8 -25 -8 -30 0 -43 -24 -24 -46 10 -13 10 -17 -1 -24 -24 -15 51 -16
94 -2 55 18 126 61 126 77 0 16 69 91 81 87 5 -1 9 2 9 8 0 5 7 6 17 3 10 -4
14 -2 10 4 -4 6 6 10 24 11 29 1 30 0 13 -14 -17 -14 -17 -15 -1 -10 12 4 17
0 17 -14 0 -10 -5 -22 -11 -26 -8 -4 -7 -9 2 -16 11 -7 11 -11 2 -14 -7 -3
-22 -21 -33 -40 -12 -19 -28 -34 -36 -34 -8 0 -14 -4 -14 -10 0 -25 -28 -60
-47 -60 -17 0 -16 -6 3 -35 16 -24 15 -26 -37 -80 -59 -59 -112 -124 -91 -112
7 5 12 3 12 -5 0 -15 -25 -89 -40 -118 -31 -62 -31 -58 0 -65 17 -4 30 -13 30
-21 0 -8 10 -14 26 -14 29 0 54 -21 54 -45 0 -8 6 -18 13 -20 14 -6 21 -65 7
-65 -6 0 -10 -4 -10 -9 0 -15 -41 -54 -72 -70 -16 -8 -28 -18 -28 -22 0 -5
-18 -18 -40 -29 -22 -11 -40 -18 -40 -14 0 3 -23 -10 -50 -30 -28 -20 -55 -36
-60 -36 -6 0 -31 -19 -56 -42 -54 -49 -34 -62 -153 101 -40 56 -86 110 -101
121 -15 11 -64 65 -109 120 -61 74 -76 97 -57 88 21 -9 31 -8 50 2 14 7 34 10
45 7 16 -4 21 0 21 14 0 10 5 18 12 16 18 -3 41 49 30 70 -12 23 -5 43 16 43
12 0 7 9 -16 29 -17 17 -32 37 -32 45 0 8 -20 29 -45 47 -25 18 -45 36 -45 41
0 4 -6 8 -13 8 -14 0 -118 110 -166 176 -16 22 -46 71 -66 109 -37 69 -37 71
-31 155 3 47 10 100 16 119 5 19 8 36 6 39 -3 2 -20 -11 -40 -30 -20 -19 -60
-83 -96 -154 -67 -132 -76 -141 -207 -193 -76 -30 -261 -115 -383 -176 -58
-28 -130 -60 -160 -70 -30 -9 -104 -42 -165 -71 -126 -61 -326 -129 -505 -170
-139 -32 -143 -35 -162 -130 -9 -43 -23 -73 -55 -115 -38 -48 -52 -83 -110
-265 -36 -115 -76 -246 -89 -292 -12 -45 -36 -123 -53 -173 -17 -50 -31 -102
-31 -115 l0 -24 2385 0 2385 0 0 54 c0 30 -7 85 -15 123 -19 91 -100 354 -121
395 -22 43 -139 169 -173 187 -14 8 -59 42 -98 77 -99 86 -186 147 -282 197
-77 40 -332 216 -465 320 -33 27 -82 62 -108 79 -45 30 -49 36 -74 117 -14 47
-42 113 -61 145 l-36 59 16 86 c13 65 23 93 47 120 81 97 123 183 160 330 36
143 69 221 107 250 50 40 61 13 13 -32 -16 -16 -30 -33 -30 -37 0 -14 73 1 93
18 27 24 79 137 80 176 0 19 4 33 8 31 13 -8 29 83 29 163 0 88 -14 112 -63
112 -31 0 -33 9 -13 71 7 24 19 63 26 86 7 24 32 65 56 93 31 36 49 70 64 122
12 40 29 100 39 133 16 52 17 65 6 105 -8 28 -11 60 -6 85 4 22 3 58 -2 80 -5
22 -6 66 -2 98 l6 59 -50 46 c-52 49 -71 84 -71 132 0 17 -15 48 -40 81 -22
30 -40 57 -40 60 0 10 -180 166 -237 206 -25 17 -60 46 -78 63 -36 35 -119 64
-180 62 -83 -2 -132 -9 -164 -21 -28 -12 -41 -11 -108 9 -56 16 -87 21 -122
16 -108 -16 -161 -18 -161 -7 0 12 -7 12 -65 1z m716 -1424 c15 -3 41 -20 59
-36 18 -17 38 -30 45 -30 8 0 24 -14 36 -31 18 -26 19 -33 8 -40 -24 -15 -47
-10 -81 19 -106 91 -206 119 -323 92 -51 -12 -57 -5 -14 15 l34 16 -57 -6
c-41 -5 -58 -3 -58 5 0 9 42 11 163 7 89 -2 174 -7 188 -11z m-205 -50 c14
-11 16 -17 7 -27 -6 -6 -9 -18 -6 -25 6 -17 4 -17 -35 -3 -39 13 -47 34 -19
54 26 18 28 19 53 1z m79 -5 c3 -5 1 -12 -5 -16 -5 -3 -10 1 -10 9 0 18 6 21
15 7z m79 -50 c-5 -5 -22 -11 -37 -15 l-29 -7 22 31 c19 27 23 29 37 14 9 -8
12 -19 7 -23z m-147 -19 c27 7 185 -40 177 -53 -3 -5 -17 -15 -32 -23 -48 -25
-195 16 -208 57 -3 11 -12 16 -20 13 -8 -3 -14 -1 -14 3 0 15 23 18 57 9 17
-5 35 -7 40 -6z m558 -151 c-3 -14 -14 -33 -24 -41 -10 -8 -22 -28 -27 -45 -8
-28 -9 -27 -12 19 -4 64 4 94 26 98 31 7 44 -3 37 -31z m68 -24 c-4 -6 -10 -1
-15 12 -4 13 -5 28 -1 34 4 6 10 1 15 -12 4 -13 5 -28 1 -34z m17 -74 c0 -12
-4 -25 -10 -28 -6 -4 -10 11 -10 37 0 31 3 39 10 28 5 -8 10 -25 10 -37z m-50
-35 c0 -19 -4 -26 -14 -22 -15 6 -36 47 -36 70 0 12 4 12 25 -3 15 -11 24 -28
25 -45z m15 -97 c-5 -39 -36 -92 -43 -72 -2 7 1 18 7 24 6 6 11 22 11 37 0 14
3 36 7 49 9 34 24 4 18 -38z m-113 -9 c-7 -10 -21 -30 -32 -47 -23 -35 -26
-21 -6 32 8 21 17 47 21 58 7 19 8 19 18 -3 8 -18 8 -28 -1 -40z m-361 -622
c5 0 9 -4 9 -10 0 -5 -13 -10 -30 -10 -29 0 -38 9 -23 24 4 3 13 4 21 1 7 -3
18 -5 23 -5z m-787 -249 c-9 -10 -26 18 -18 30 5 9 9 8 14 -7 4 -10 6 -21 4
-23z m661 20 c-3 -6 -16 -11 -28 -11 -21 1 -21 1 3 15 27 14 36 13 25 -4z
m-53 -29 c-7 -5 -10 -16 -6 -25 3 -9 2 -17 -4 -17 -6 0 -12 5 -14 11 -3 9 -9
9 -25 0 -12 -6 -28 -11 -35 -10 -9 0 -8 2 2 6 8 3 26 14 39 24 13 11 31 19 40
19 12 0 13 -2 3 -8z m-877 -532 c3 -6 -1 -7 -9 -4 -18 7 -21 14 -7 14 6 0 13
-4 16 -10z m-362 -56 c-4 -10 1 -17 16 -21 11 -3 21 -9 21 -14 0 -14 -17 -11
-34 6 -8 8 -22 12 -30 9 -12 -4 -16 0 -16 15 0 16 6 21 25 21 18 0 23 -4 18
-16z m1657 -169 c-7 -8 -17 -12 -23 -8 -6 4 -3 9 9 14 27 11 28 11 14 -6z
m-910 -511 c0 -17 -16 -18 -24 -1 -3 6 -3 1 0 -13 5 -19 4 -22 -6 -14 -16 16
-3 55 16 47 7 -3 14 -11 14 -19z"/>
<path d="M3220 2980 c19 -13 30 -13 30 0 0 6 -10 10 -22 10 -19 0 -20 -2 -8
-10z"/>
<path d="M2370 3380 c0 -6 -7 -10 -15 -10 -35 0 -145 -91 -145 -120 0 -9 -5
-21 -12 -28 -7 -7 -8 -12 -2 -12 6 0 23 14 40 31 47 49 90 72 127 66 73 -12
129 -28 184 -51 77 -32 163 -48 163 -30 0 7 8 18 18 23 16 10 15 12 -8 31 -14
11 -32 20 -41 20 -9 0 -32 6 -50 14 -33 13 -156 37 -232 45 -5 1 -6 5 -3 10 3
5 -1 11 -9 15 -8 3 -15 1 -15 -4z"/>
<path d="M2407 3195 c-21 -8 -35 -10 -32 -5 12 20 -24 9 -53 -14 -37 -32 -38
-56 -2 -56 15 0 49 -7 76 -15 71 -21 85 -18 34 8 -49 24 -60 42 -33 50 10 2
26 8 36 12 11 5 17 3 17 -6 0 -7 10 -28 23 -46 31 -45 66 -45 105 3 l29 35 32
-27 c41 -34 36 -40 -31 -43 -49 -2 -25 -13 38 -18 55 -4 56 -3 49 19 -4 13 -8
34 -8 48 -1 15 -14 32 -36 47 -29 20 -46 23 -120 22 -47 0 -103 -7 -124 -14z
m83 -37 c0 -16 -3 -19 -11 -11 -6 6 -8 16 -5 22 11 17 16 13 16 -11z m67 0
c-3 -8 -6 -5 -6 6 -1 11 2 17 5 13 3 -3 4 -12 1 -19z m118 -8 c3 -5 1 -10 -4
-10 -6 0 -11 5 -11 10 0 6 2 10 4 10 3 0 8 -4 11 -10z"/>
<path d="M3080 2961 c0 -5 5 -13 10 -16 6 -3 10 -2 10 4 0 5 -4 13 -10 16 -5
3 -10 2 -10 -4z"/>
<path d="M2090 2790 c-8 -5 -12 -12 -9 -15 4 -3 12 1 19 10 14 17 11 19 -10 5z"/>
<path d="M3010 2732 c0 -5 7 -17 15 -28 13 -16 14 -16 9 -1 -4 11 -1 17 7 17
19 -1 69 -46 69 -63 0 -14 29 -58 30 -45 0 4 -11 32 -24 61 -20 46 -29 55 -56
61 -42 8 -50 8 -50 -2z"/>
<path d="M2653 2593 c-28 -11 -13 -33 22 -33 33 0 81 -22 96 -44 4 -5 12 1 18
12 23 42 -76 90 -136 65z"/>
<path d="M3130 2581 c0 -20 -25 -51 -41 -51 -5 0 -9 7 -9 15 0 46 -115 44
-189 -5 l-46 -30 53 0 c28 0 52 -4 52 -9 0 -12 -46 -41 -65 -41 -8 0 -15 -8
-15 -19 0 -10 -7 -25 -16 -32 -14 -11 -18 -10 -30 5 -7 11 -11 23 -8 27 5 9
-17 49 -28 49 -5 0 -8 -9 -8 -21 0 -18 -4 -20 -29 -14 -32 7 -52 -11 -30 -27
11 -7 11 -11 2 -15 -19 -7 -16 -23 5 -23 9 0 31 -9 47 -20 24 -16 40 -19 80
-14 63 8 85 20 85 44 0 25 5 25 32 0 13 -12 29 -18 40 -14 13 4 21 -4 32 -30
8 -20 22 -36 30 -36 22 0 95 -52 96 -68 0 -7 4 -11 9 -8 5 3 23 1 41 -5 44
-16 51 -1 33 70 -8 31 -17 58 -19 60 -2 2 -16 -4 -31 -14 -18 -12 -28 -14 -31
-7 -2 7 -9 12 -16 12 -7 0 -21 9 -31 20 -10 11 -24 20 -32 20 -7 0 -13 6 -13
13 0 24 -26 51 -41 42 -7 -5 -23 -10 -36 -11 -17 -2 -23 2 -23 17 0 11 6 19
13 18 41 -5 54 24 16 36 -17 6 -19 9 -8 16 22 13 29 11 38 -14 13 -33 46 -31
76 4 21 26 35 79 20 79 -3 0 -5 -9 -5 -19z m-170 -132 c0 -5 -4 -9 -10 -9 -5
0 -10 7 -10 16 0 8 5 12 10 9 6 -3 10 -10 10 -16z m-183 -25 c-3 -3 -12 -4
-19 -1 -8 3 -5 6 6 6 11 1 17 -2 13 -5z m233 -19 c0 -8 -4 -15 -10 -15 -5 0
-10 7 -10 15 0 8 5 15 10 15 6 0 10 -7 10 -15z"/>
<path d="M2640 2442 c0 -4 -10 -12 -22 -17 -12 -6 -24 -16 -26 -23 -3 -8 10
-4 32 10 35 23 46 38 26 38 -5 0 -10 -3 -10 -8z"/>
<path d="M2514 2364 c3 -7 -2 -18 -10 -24 -8 -7 -14 -17 -14 -23 0 -6 14 2 30
18 35 34 37 41 10 41 -12 0 -19 -5 -16 -12z"/>
<path d="M2458 2346 c-10 -7 -18 -20 -18 -29 0 -9 -4 -19 -10 -22 -17 -10 -11
-25 10 -25 14 0 20 7 20 23 0 13 5 28 11 34 18 18 7 33 -13 19z"/>
<path d="M2838 2299 c-5 -15 -96 -20 -155 -8 -51 10 -108 2 -143 -20 -26 -17
-6 -20 48 -6 35 9 61 11 80 5 21 -7 227 -27 341 -33 8 0 2 -9 -13 -20 -42 -30
-23 -40 65 -32 55 5 79 4 79 -4 0 -14 57 -15 65 -1 4 6 15 6 31 0 19 -8 23 -7
17 3 -4 6 -8 16 -8 22 0 5 -14 10 -31 10 -17 0 -37 5 -45 12 -25 21 -123 63
-146 63 -12 0 -25 -4 -28 -10 -7 -11 -116 -14 -114 -2 4 21 -3 32 -20 32 -11
0 -21 -5 -23 -11z"/>
<path d="M2756 2125 c-10 -27 -7 -35 14 -35 11 0 20 -6 20 -14 0 -22 78 -32
97 -13 13 13 12 17 -9 36 -16 16 -18 20 -5 16 10 -4 17 -2 17 4 0 6 -12 11
-27 11 -16 0 -44 3 -64 6 -28 5 -37 2 -43 -11z"/>
<path d="M3305 2130 c-3 -5 -1 -10 4 -10 6 0 11 5 11 10 0 6 -2 10 -4 10 -3 0
-8 -4 -11 -10z"/>
<path d="M3285 2070 c-3 -5 -1 -10 4 -10 6 0 11 5 11 10 0 6 -2 10 -4 10 -3 0
-8 -4 -11 -10z"/>
<path d="M2820 1970 c0 -5 5 -10 11 -10 5 0 7 5 4 10 -3 6 -8 10 -11 10 -2 0
-4 -4 -4 -10z"/>
<path d="M2990 1890 c0 -5 5 -10 11 -10 5 0 7 5 4 10 -3 6 -8 10 -11 10 -2 0
-4 -4 -4 -10z"/>
<path d="M2876 1524 c-4 -10 -1 -14 6 -12 15 5 23 28 10 28 -5 0 -13 -7 -16
-16z"/>
<path d="M2648 1212 c9 -11 21 -17 26 -14 5 3 1 11 -9 19 -27 19 -38 16 -17
-5z"/>
<path d="M2870 1219 c0 -10 30 -20 41 -13 18 11 9 24 -16 22 -14 -1 -25 -5
-25 -9z"/>
<path d="M2808 1215 c-4 -4 -4 -13 -1 -21 7 -19 -31 -18 -47 1 -16 19 -47 19
-67 0 -8 -9 -14 -18 -12 -20 2 -2 30 -5 61 -8 40 -3 61 -1 69 9 11 14 9 51 -3
39z"/>
</g>
</svg>
